<svg xmlns="http://www.w3.org/2000/svg" width="159.902" height="50.103"><defs><clipPath id="a"><path d="M0-250.666h159.9v50.1H0z" transform="translate(0 250.666)"/></clipPath></defs><g clip-path="url(#a)" fill="#70b635"><path d="M67.238 21.717a8.679 8.679 0 01-3.4-3.232 8.921 8.921 0 01-1.237-4.672 8.921 8.921 0 011.237-4.672 8.679 8.679 0 013.4-3.232 10.075 10.075 0 014.859-1.165 10.172 10.172 0 014.11.8 8.24 8.24 0 013.086 2.3l-2.6 2.4a5.581 5.581 0 00-4.4-2.054 5.827 5.827 0 00-2.9.714 5.071 5.071 0 00-1.986 1.992 5.869 5.869 0 00-.712 2.906 5.867 5.867 0 00.712 2.906 5.071 5.071 0 001.986 1.992 5.827 5.827 0 002.9.714 5.554 5.554 0 004.4-2.079l2.6 2.4a8.1 8.1 0 01-3.1 2.33 10.261 10.261 0 01-4.122.8 10.022 10.022 0 01-4.835-1.165m25.591-2.989a5.12 5.12 0 001.961-1.993 5.864 5.864 0 00.712-2.906 5.865 5.865 0 00-.712-2.906 5.12 5.12 0 00-1.961-1.988 5.541 5.541 0 00-2.8-.714 5.535 5.535 0 00-2.8.714 5.113 5.113 0 00-1.961 1.992 5.865 5.865 0 00-.712 2.906 5.864 5.864 0 00.712 2.906 5.113 5.113 0 001.968 1.989 5.535 5.535 0 002.8.714 5.541 5.541 0 002.8-.714m-7.708 2.994a8.721 8.721 0 01-3.423-3.244 8.876 8.876 0 01-1.244-4.643 8.877 8.877 0 011.237-4.647 8.723 8.723 0 013.423-3.253 10.185 10.185 0 014.91-1.177 10.116 10.116 0 014.9 1.177 8.842 8.842 0 013.423 3.244 8.812 8.812 0 011.246 4.656 8.811 8.811 0 01-1.249 4.647 8.84 8.84 0 01-3.423 3.244 10.113 10.113 0 01-4.9 1.177 10.182 10.182 0 01-4.91-1.177m28.765-2.998a5.116 5.116 0 001.961-1.993 5.864 5.864 0 00.712-2.906 5.865 5.865 0 00-.712-2.906 5.116 5.116 0 00-1.961-1.988 5.538 5.538 0 00-2.8-.714 5.538 5.538 0 00-2.8.714 5.116 5.116 0 00-1.961 1.992 5.865 5.865 0 00-.712 2.906 5.864 5.864 0 00.712 2.906 5.116 5.116 0 001.968 1.989 5.538 5.538 0 002.8.714 5.538 5.538 0 002.8-.714m-7.708 2.994a8.725 8.725 0 01-3.423-3.244 8.876 8.876 0 01-1.244-4.643 8.877 8.877 0 011.237-4.647 8.727 8.727 0 013.423-3.253 10.188 10.188 0 014.91-1.177 10.115 10.115 0 014.9 1.177 8.839 8.839 0 013.423 3.244 8.807 8.807 0 011.246 4.656 8.806 8.806 0 01-1.249 4.647 8.837 8.837 0 01-3.423 3.244 10.112 10.112 0 01-4.9 1.177 10.185 10.185 0 01-4.91-1.177m17.496-16.663h4.048v14.229h8.77v3.307h-12.818zM67.238 45.098a8.679 8.679 0 01-3.4-3.232 8.921 8.921 0 01-1.237-4.672 8.921 8.921 0 011.237-4.672 8.681 8.681 0 013.4-3.231 10.072 10.072 0 014.859-1.165 10.172 10.172 0 014.11.8 8.237 8.237 0 013.086 2.3l-2.6 2.4a5.581 5.581 0 00-4.4-2.054 5.827 5.827 0 00-2.9.714 5.071 5.071 0 00-1.986 1.992 5.869 5.869 0 00-.712 2.906 5.867 5.867 0 00.712 2.906 5.069 5.069 0 001.986 1.992 5.827 5.827 0 002.9.714 5.553 5.553 0 004.4-2.079l2.6 2.4a8.1 8.1 0 01-3.1 2.33 10.261 10.261 0 01-4.122.8 10.022 10.022 0 01-4.835-1.165M92.21 32.519a4.243 4.243 0 00-2.773-.789h-3.3v6.113h3.3a4.2 4.2 0 002.773-.8 2.79 2.79 0 00.95-2.255 2.783 2.783 0 00-.95-2.267m1.024 13.44l-3.373-4.885h-3.723v4.885H82.09V28.427h7.57a9.7 9.7 0 014.035.777 6.008 6.008 0 012.636 2.2 6.092 6.092 0 01.924 3.382 5.961 5.961 0 01-.939 3.373 5.941 5.941 0 01-2.661 2.167l3.923 5.637zm20.788-3.255v3.261H100.48v-17.54h13.217v3.257h-9.194v3.808h8.12v3.156h-8.12v4.059zm10.997-.075a5.868 5.868 0 004.185-1.466 5.183 5.183 0 001.557-3.974 5.184 5.184 0 00-1.561-3.971 5.868 5.868 0 00-4.181-1.461h-3.7v10.872zm-7.745-14.2h7.945a11.142 11.142 0 015.035 1.09 8.149 8.149 0 013.4 3.069 8.65 8.65 0 011.205 4.601 8.65 8.65 0 01-1.212 4.609 8.147 8.147 0 01-3.4 3.069 11.142 11.142 0 01-5.035 1.09h-7.945zm20.516-.004h4.048v17.536h-4.048zm11.888 3.307h-5.6v-3.307h15.241v3.307h-5.6v14.229h-4.041zM34.191 5.886a1.531 1.531 0 01.829-.547l.032-.523.462.274-.01.216h.007c.029 0 .05.007.074.009l.03-.462.461.269-.019.3a1.524 1.524 0 01.725.646 1.913 1.913 0 01.246 1.1 1.968 1.968 0 01-.236.849 1.666 1.666 0 01-.571.614l-.1.061-.34-.528.09-.049-.442-.275.114-1.91h-.006l-.075-.01-.109 1.879-.467-.284.089-1.51a.955.955 0 00-.369.319 1.307 1.307 0 00-.233.694 1.347 1.347 0 00.119.635 1.276 1.276 0 00.4.5l.106.08-.419.4-.077-.055a1.6 1.6 0 01-.551-.68 1.983 1.983 0 01-.152-.925 1.931 1.931 0 01.392-1.094m-2.654 6.593a1.54 1.54 0 00.369.094c1.41.221 2.9.435 4.56.658a1.306 1.306 0 00.267.021c.211 0 .34 0 .548-.5a14.572 14.572 0 001.026-4.799c.035-.62.062-1.243.088-1.863.041-.892.08-1.812.148-2.721a10.374 10.374 0 01.241-1.438c.045-.206.09-.414.129-.62a.629.629 0 00.012-.272.822.822 0 00-.171-.047C37.539.785 36.321.61 35.19.444L33.957.267c-.568 0-.595.1-.662.335a10.362 10.362 0 00-.394 1.959c-.079.933-.112 1.89-.147 2.817l-.035.949a18.089 18.089 0 01-1.091 5.769.941.941 0 00-.092.384"/><path d="M36.281 7.734a1.314 1.314 0 00.167-.591 1.284 1.284 0 00-.137-.687.974.974 0 00-.3-.347l-.117 2a.976.976 0 00.382-.375M6.2 18.485l-.184.541-.538-.122.2-.561a2.889 2.889 0 01-.561-.265 2.7 2.7 0 01-.531-.434l-.086-.087.481-.321.06.066a2.2 2.2 0 00.415.35 2.473 2.473 0 00.385.207l.258-.747a1.9 1.9 0 01-.736-.369.557.557 0 01-.172-.615.773.773 0 01.556-.473 1.869 1.869 0 01.868-.029l.136-.381.535.118-.144.418a3.041 3.041 0 01.479.243 2.5 2.5 0 01.466.375l.086.086-.461.316-.059-.066a2.149 2.149 0 00-.357-.308 2.192 2.192 0 00-.318-.172l-.181.523a1.826 1.826 0 01.818.418.655.655 0 01.186.713.9.9 0 01-.621.54 1.945 1.945 0 01-.978.038m2.58 2.345c.228.106.459.212.694.312.1.044.194.094.291.147a1.881 1.881 0 00.215.108.425.425 0 00.065.019c0-.007.015-.023.032-.05a2.945 2.945 0 00.181-.445q.643-2.052 1.277-4.107c.037-.129.063-.263.082-.364l.014-.066c-.01-.245-.1-.378-.381-.563a8.818 8.818 0 00-3.113-1.285c-.442-.094-.89-.169-1.337-.243-.5-.085-1.005-.173-1.511-.286-.8-.176-1.625-.407-2.533-.7a1.385 1.385 0 00-.379-.085c-.018 0-.075.054-.147.28-.481 1.487-.952 3-1.4 4.506-.141.478-.054.591.318.725a22.885 22.885 0 002.68.729c.411.094.824.165 1.24.24a18.656 18.656 0 011.892.4 13.3 13.3 0 011.821.726"/><path d="M6.248 16.092a.932.932 0 00-.236.028c-.127.029-.2.078-.228.147-.007.025-.029.086.074.169a1.363 1.363 0 00.409.193l.182-.522a1.58 1.58 0 00-.201-.015m.866 1.381a1.215 1.215 0 00-.484-.22l-.26.751a1.891 1.891 0 00.216.013 1.178 1.178 0 00.33-.042.4.4 0 00.3-.232c.021-.064.03-.152-.1-.269m37.483-2.375a1.332 1.332 0 011.332 1.33 1.332 1.332 0 01-1.332 1.33 1.331 1.331 0 01-1.33-1.33 1.331 1.331 0 011.33-1.33m.171 4.369c.356-.166.71-.329 1.067-.487a11.908 11.908 0 014.117-1.043 1.134 1.134 0 00.41-.076 3.561 3.561 0 00-.085-.379c-.432-1.43-.891-2.884-1.357-4.322-.166-.516-.254-.582-.777-.582h-.075a9.579 9.579 0 00-3.583.841c-.338.144-.67.3-1 .457-.429.2-.874.413-1.33.594-.751.3-1.565.577-2.416.822a.963.963 0 00-.392.168 1.067 1.067 0 00.064.321c.434 1.439.906 2.943 1.4 4.471.119.365.235.463.527.511.158-.048.32-.094.479-.139a12.16 12.16 0 001.25-.4c.569-.232 1.144-.5 1.7-.756m-31.787 8.546a1.577 1.577 0 01-.369.8 1.983 1.983 0 01-.766.542 2.009 2.009 0 01-.779.166 1.685 1.685 0 01-.375-.042 1.509 1.509 0 01-.854-.5l-.483.2.041-.536.2-.084-.026-.077-.431.175.042-.532.278-.115a1.514 1.514 0 01.263-.935 1.918 1.918 0 01.882-.706 1.993 1.993 0 01.865-.158 1.669 1.669 0 01.8.246l.1.059-.324.538-.084-.062-.054.518-1.767.735.025.074 1.737-.724-.054.544-1.4.581a.948.948 0 00.449.192 1.276 1.276 0 00.726-.094 1.36 1.36 0 00.519-.385 1.313 1.313 0 00.275-.576l.025-.131.546.2zm3.525 1.52a2.668 2.668 0 01.318-.014 1.254 1.254 0 00.164-.006.536.536 0 00.206-.048c0-.009 0-.05-.016-.127a143.544 143.544 0 00-.869-4.357c-.027-.129-.1-.266-.377-.3-.218-.025-.439-.035-.66-.046l-.325-.019a16.73 16.73 0 00-4.65.959l-.194.064a19.032 19.032 0 01-4.054.991.469.469 0 00-.216.056.554.554 0 00.011.2c.252 1.389.541 2.829.858 4.277.062.281.156.31.352.31h.067a9.105 9.105 0 001.816-.275c.564-.154 1.126-.33 1.684-.507.789-.247 1.6-.5 2.429-.692a20.057 20.057 0 012.459-.355c.333-.033.668-.067 1-.107"/><path d="M11.445 26.789h-.084a1.338 1.338 0 00-.526.105 1.341 1.341 0 00-.564.43 1 1 0 00-.181.417l1.855-.77a.967.967 0 00-.5-.183M25.971 7.955a1.049 1.049 0 011.049 1.051 1.049 1.049 0 01-1.049 1.049 1.051 1.051 0 01-1.052-1.049 1.051 1.051 0 011.052-1.051m-2.05 5.366c.231.007.462.009.7.009l1.128-.006a.573.573 0 01.231.047l.379.006c.456 0 .91.007 1.364-.01a.544.544 0 00.244-.046.676.676 0 00.009-.2 16.3 16.3 0 01.236-3.525l.057-.41a11.589 11.589 0 000-3.939 4.408 4.408 0 00-.176-.629c-.1-.267-.255-.273-.313-.274a130.876 130.876 0 00-3.708-.066h-.575a.4.4 0 00-.112.013 1.759 1.759 0 00.037.324 13.164 13.164 0 01.063 4.633l-.01.085c-.1.7-.2 1.432-.267 2.143a6.458 6.458 0 00-.005 1.149c.05.6.126.672.724.691M45.87 34.589a.623.623 0 00-.067.007c-.078.015-.09.047-.1.06a.085.085 0 00.026.089.553.553 0 00.13.1l.1-.252a.694.694 0 00-.089-.004m.06 1.258a.461.461 0 00.213 0 .192.192 0 00.146-.119.159.159 0 00-.034-.158.5.5 0 00-.168-.132z"/><path d="M46.651 35.366a.562.562 0 01.06.532.6.6 0 01-.412.368.926.926 0 01-.527-.007l-.141.366-.394-.152.147-.384a1.489 1.489 0 01-.268-.2 1.7 1.7 0 01-.274-.338l-.057-.093.375-.255.062.1a1.323 1.323 0 00.2.255 1 1 0 00.124.111l.158-.407a1.008 1.008 0 01-.365-.3.48.48 0 01-.06-.464.517.517 0 01.375-.325.9.9 0 01.463.008l.1-.259.393.151-.112.289a1.836 1.836 0 01.228.181 1.47 1.47 0 01.24.295l.057.092-.36.253-.064-.106a1.158 1.158 0 00-.169-.224.848.848 0 00-.09-.08l-.1.255a.979.979 0 01.409.335m3.314-.752a12.244 12.244 0 01-4.235-1.578 14.455 14.455 0 00-1.868-.886 1.5 1.5 0 00-.482-.112c-.1 0-.243 0-.436.57a87.197 87.197 0 00-.861 2.664.93.93 0 00-.074.405 1.263 1.263 0 00.414.216c.761.3 1.552.67 2.352 1.085l.2.1a10.324 10.324 0 003 1.19c.151.027.3.044.415.056l.071.01c.539 0 .58-.121.665-.362.364-1.037.7-2.082 1.005-3.1a.515.515 0 00.032-.224c0 .01-.06-.021-.194-.038M14.995 4.911c.087.278.188.551.292.824a11.331 11.331 0 01.4 1.2c.293 1.17.51 2.223.66 3.22a1.567 1.567 0 00.132.523h.06a2.2 2.2 0 00.415-.06 76.687 76.687 0 002.154-.512c.606-.153.661-.225.646-.856a12.872 12.872 0 00-.792-3.6c-.343-1.042-.653-2.111-.953-3.143l-.039-.13c-.065-.235-.121-.279-.121-.279a.708.708 0 00-.221.013c-.917.191-1.816.4-2.671.631-.365.1-.4.191-.355.507a11.748 11.748 0 00.4 1.665m4.753 16.387a.4.4 0 00.136-.1c.616-.561 1.161-1.1 1.667-1.643.172-.188.172-.27-.005-.45a7.976 7.976 0 00-1.151-.951 11.392 11.392 0 01-2.737-2.406.8.8 0 00-.143-.1 1.031 1.031 0 00-.2.127c-.462.431-1 .945-1.508 1.484-.3.317-.256.436-.065.675a10.266 10.266 0 001.394 1.419c.531.442 1.1.864 1.655 1.274q.377.275.75.557a.489.489 0 00.206.115m15.55-1.631a.486.486 0 00-.233-.152.4.4 0 00-.191.1 8.248 8.248 0 00-1.153 1.133c-.365.434-.713.9-1.048 1.358-.152.2-.3.41-.459.613a.653.653 0 00-.067.1.438.438 0 01.043.05c.462.506.9.952 1.344 1.365a.317.317 0 00.119.079.285.285 0 00.114-.079 6.382 6.382 0 00.769-.931 9.5 9.5 0 012.005-2.266l.03-.041a.77.77 0 00-.059-.094c-.355-.38-.776-.826-1.213-1.236m-17.88 14.078c-.047-.056-.139-.149-.218-.149a.5.5 0 00-.248.111 5.222 5.222 0 00-.754.682 12 12 0 01-2.682 2.393.456.456 0 00-.135.11 1.162 1.162 0 00.088.156 19.668 19.668 0 001.231 1.597 1.246 1.246 0 00.276.171.071.071 0 00.012.006l.06-.019a1.32 1.32 0 00.3-.115 14.833 14.833 0 001.441-1.148c.429-.4.851-.837 1.256-1.262.181-.186.359-.372.539-.556s.173-.2.077-.34a20.5 20.5 0 00-1.243-1.637m18.395.579a2 2 0 00-1.426.594 1.96 1.96 0 00-.579 1.406 2 2 0 002 1.986h.013a1.981 1.981 0 001.414-.6 1.965 1.965 0 00.573-1.414 2 2 0 00-1.995-1.972M9.659 11.448h.012a1.948 1.948 0 001.38-.567 1.913 1.913 0 00.572-1.366 1.95 1.95 0 00-1.93-1.938 1.949 1.949 0 00-1.962 1.937 1.938 1.938 0 001.928 1.934M52.34 23.877a.576.576 0 00-.055-.244.619.619 0 00-.227-.028c-.139 0-.243.012-.342.018a.559.559 0 01-.345.068l-.578-.074c-.514-.063-1.027-.129-1.543-.187a6.845 6.845 0 00-.751-.059h-.131c-.258.013-.263.093-.27.217a12.431 12.431 0 00.032 1.64c.007.074.018.118.141.134 1.019.127 2.039.239 3.056.352a1.551 1.551 0 00.265-.011h.057c.644-.056.731-.152.727-.785 0-.391-.008-.72-.04-1.042M2.011 21.679a1.729 1.729 0 00-1.744 1.709 1.713 1.713 0 001.71 1.708h.005a1.715 1.715 0 001.722-1.69 1.714 1.714 0 00-1.693-1.727m40.833-11.6a.375.375 0 00.2.1.369.369 0 00.195-.129 4.525 4.525 0 00.4-.5c.089-.119.176-.238.267-.354l.308-.385c.342-.429.7-.872 1.072-1.291a.908.908 0 00.208-.3.925.925 0 00-.172-.225 8.114 8.114 0 00-.826-.771 1.585 1.585 0 00-.286-.137c-.007.005-.017.009-.023.014a1.608 1.608 0 00-.352.2 9.2 9.2 0 00-.895 1.017c-.241.313-.467.639-.694.966l-.312.447c-.191.268-.176.284.01.485a8.315 8.315 0 00.9.853M8.127 35.229a1.374 1.374 0 00-.985.405 1.352 1.352 0 00-.4.966 1.373 1.373 0 001.366 1.36h.01a1.375 1.375 0 00.978-.407 1.345 1.345 0 00.4-.96 1.373 1.373 0 00-1.369-1.364"/><path d="M40.741 25.405c-.094-.328-.191-.669-.315-.985-.053-.141-.147-.306-.274-.306a.558.558 0 00-.3.142c-.378.3-.747.629-1.1.947l-.72.64c-.6.534-3.168 3.227-3.768 3.3-.838.1-1.675.212-2.513.323l-1.484.2a4.65 4.65 0 01-.573.043c-1.072 0-1.169-.747-1.176-1.582-.005-.3 0-.6 0-.9l.006-.553c0-.174.02-.684.043-1.3.041-1.011.094-2.4.089-3a3.392 3.392 0 01.661-2.069c.324-.449.632-.908.94-1.366l.405-.6c.049-.072.074-.106.094-.144s.058-.1.092-.152c.154-.245.181-.323.132-.378a.971.971 0 00-.591-.172h-.184c-.362 0-.724.016-1.085.032-.345.014-.69.029-1.032.03a1.213 1.213 0 00-1.21.9 20.192 20.192 0 00-1.409 5.908c-.05.442-.117.914-.219 1.525-.09.553-.292 1.186-1.052 1.186a2.486 2.486 0 01-.662-.113 9.167 9.167 0 01-1.64-.872 9.669 9.669 0 00-1.461-.792 4.862 4.862 0 00-.358-.1 1.4 1.4 0 00-.312-.041.288.288 0 00-.214.06c-.03.035-.1.147-.059.475l.012.107a5.741 5.741 0 00.241 1.289 2.821 2.821 0 00.631 1c.582.59 2.213 2.114 2.8 2.6a2.309 2.309 0 01.876 1.972q-.205 5.827-.383 11.653l-.017.44a3.025 3.025 0 01-.63 1.751q-.95 1.29-1.89 2.593a3.688 3.688 0 00-.392.649.262.262 0 00-.034.152c.007.011.054.047.181.067a.968.968 0 00.1.009h.017a6.967 6.967 0 003.279-1.658.273.273 0 01.054-.036.4.4 0 01.191-.047c.258 0 .489.23.782.524.1.1.207.206.313.3.267.2.705.16 1.3.049l.144-.027a6.066 6.066 0 011.1-.114 3.283 3.283 0 011.452.315.932.932 0 00.454-.561.43.43 0 01.452-.281 5.785 5.785 0 011.738.576c.288.127.563.242.7.282l.094.028a1.823 1.823 0 00.446.095c.09-.016.186-.014.229-.026a.46.46 0 00-.05-.191 10.561 10.561 0 00-.669-.969 165.694 165.694 0 00-1.752-2.3 2.892 2.892 0 01-.618-1.762l-.01-.778q-.053-3.839-.117-7.678a1.927 1.927 0 01.97-1.766c1.423-.911 2.872-2.043 4.274-3.14s2.831-2.213 4.254-3.13c1.166-.752 1.166-.752.784-2.077z"/></g></svg>